<?xml version="1.0" encoding="UTF-8"?>
<svg width="80px" height="80px" viewBox="0 0 80 80" version="1.1" xmlns="http://www.w3.org/2000/svg" xmlns:xlink="http://www.w3.org/1999/xlink">
    <title>Icon/特殊/导入 3</title>
    <defs>
        <path d="M45.4259828,0 C46.7521866,0 48.0245916,0.528322965 48.9629433,1.46603363 L63.5324179,16.0362295 C64.4720208,16.9751921 65,18.2496774 65,19.5779965 L65,62.4986036 C65,63.8807566 63.8814847,65 62.500231,65 L7.49280116,65 C6.15158375,65 5.065598,63.9433541 5.00429236,62.6162869 L5.00429236,53.8714151 L9.99257018,53.8714151 L9.99257018,59.9997111 L59.9992108,59.9997111 L59.9992108,22.5000482 L44.9980944,22.5000482 C43.6180918,22.5000482 42.4995765,21.3808047 42.4995765,19.9999037 L42.4995765,5.00154086 L9.99257018,5.00154086 L9.99257018,26.2846935 L5.00429236,26.2846935 L5.00429236,2.38621699 C5.065598,1.05914983 6.15158375,0 7.49280116,0 Z M14.5240941,30.0251449 L14.5240941,35.071756 L30.8977063,35.071756 C31.5883331,35.071756 32.1488419,35.6338816 32.1488419,36.3237062 L32.1488419,43.8354071 C32.1488419,44.5264836 31.5883331,45.0873572 30.8977063,45.0873572 L14.5240941,45.0873572 L14.5240941,49.2250525 C14.5240941,50.3117452 13.2329221,50.8826345 12.429693,50.1502436 L0.81790306,41.852318 C-0.240557697,40.8883164 -0.27684063,39.2344903 0.739081514,38.2241665 L12.3909078,29.1362603 C13.1803744,28.3525395 14.5240941,28.9134132 14.5240941,30.0251449 Z M47.5003657,6.87946609 L47.5003657,17.4997592 L58.1225074,17.4997592 L47.5003657,6.87946609 Z" id="path-1"></path>
    </defs>
    <g id="页面-2" stroke="none" stroke-width="1" fill="none" fill-rule="evenodd">
        <g id="导入导出-导入功能" transform="translate(-1048, -315)">
            <g id="编组-20" transform="translate(604, 265)">
                <g id="导入备份" transform="translate(333, 0)">
                    <g id="编组-21" transform="translate(48, 50)">
                        <g id="Icon/特殊/导入-3" transform="translate(63, 0)">
                            <g id="Icon/特殊/导入" transform="translate(7.5, 7.5)">
                                <mask id="mask-2" fill="white">
                                    <use xlink:href="#path-1"></use>
                                </mask>
                                <use id="Fill-1" fill="#737987" xlink:href="#path-1"></use>
                                <g id="color/颜色" mask="url(#mask-2)" fill="#FFD695">
                                    <g transform="translate(-7.5, -7.5)" id="Rectangle">
                                        <rect x="0" y="0" width="80" height="80"></rect>
                                    </g>
                                </g>
                            </g>
                        </g>
                    </g>
                </g>
            </g>
        </g>
    </g>
</svg>