<?xml version="1.0" encoding="UTF-8"?>
<svg width="80px" height="80px" viewBox="0 0 80 80" version="1.1" xmlns="http://www.w3.org/2000/svg" xmlns:xlink="http://www.w3.org/1999/xlink">
    <title>Icon/特殊/导入 2</title>
    <defs>
        <path d="M45.4259828,0 C46.7521866,0 48.0245916,0.528322965 48.9629433,1.46603363 L63.5324179,16.0362295 C64.4720208,16.9751921 65,18.2496774 65,19.5779965 L65,62.4986036 C65,63.8807566 63.8814847,65 62.500231,65 L7.49280116,65 C6.15158375,65 5.065598,63.9433541 5.00429236,62.6162869 L5.00429236,53.8714151 L9.99257018,53.8714151 L9.99257018,59.9997111 L59.9992108,59.9997111 L59.9992108,22.5000482 L44.9980944,22.5000482 C43.6180918,22.5000482 42.4995765,21.3808047 42.4995765,19.9999037 L42.4995765,5.00154086 L9.99257018,5.00154086 L9.99257018,26.2846935 L5.00429236,26.2846935 L5.00429236,2.38621699 C5.065598,1.05914983 6.15158375,0 7.49280116,0 Z M17.6247478,30.0251449 C17.6247478,28.9134132 18.9684675,28.3525395 19.7579341,29.1362603 L31.4097604,38.2241665 C32.4256825,39.2344903 32.3893996,40.8883164 31.3309389,41.852318 L19.7191489,50.1502436 C18.9159198,50.8826345 17.6247478,50.3117452 17.6247478,49.2250525 L17.6247478,45.0873572 L1.25113565,45.0873572 C0.560508769,45.0873572 0,44.5264836 0,43.8354071 L0,36.3237062 C0,35.6338816 0.560508769,35.071756 1.25113565,35.071756 L17.6247478,35.071756 Z M47.5003657,6.87946609 L47.5003657,17.4997592 L58.1225074,17.4997592 L47.5003657,6.87946609 Z" id="path-1"></path>
    </defs>
    <g id="页面-2" stroke="none" stroke-width="1" fill="none" fill-rule="evenodd">
        <g id="导入导出-导入功能" transform="translate(-713, -315)">
            <g id="编组-20" transform="translate(604, 265)">
                <g id="编组-11" transform="translate(47, 50)">
                    <g id="Icon/特殊/导入-2" transform="translate(62, 0)">
                        <g id="Icon/特殊/导入" transform="translate(7.5, 7.5)">
                            <mask id="mask-2" fill="white">
                                <use xlink:href="#path-1"></use>
                            </mask>
                            <use id="Fill-1" fill="#737987" xlink:href="#path-1"></use>
                            <g id="color/颜色" mask="url(#mask-2)" fill="#A3C5FD">
                                <g transform="translate(-7.5, -7.5)" id="Rectangle">
                                    <rect x="0" y="0" width="80" height="80"></rect>
                                </g>
                            </g>
                        </g>
                    </g>
                </g>
            </g>
        </g>
    </g>
</svg>